ply
format ascii 1.0
comment File exported by Rhinoceros Version 4.0
element vertex 497
property float x
property float y
property float z
property float nx
property float ny
property float nz
property uchar red
property uchar green
property uchar blue
element face 462
property list uchar uint vertex_index
element material 1
property uchar ambient_red
property uchar ambient_green
property uchar ambient_blue
property uchar ambient_alpha
property uchar diffuse_red
property uchar diffuse_green
property uchar diffuse_blue
property uchar diffuse_alpha
property uchar emissive_red
property uchar emissive_green
property uchar emissive_blue
property uchar emissive_alpha
property uchar specular_red
property uchar specular_green
property uchar specular_blue
property uchar specular_alpha
property double shine
property double transparency
end_header
0.000000 0.000000 -7.000000 0.000000 0.000000 -1.000000 255 255 255
-1.431490 0.000000 -6.852068 -0.204499 -0.000000 -0.978867 255 255 255
-2.759929 0.000000 -6.432946 -0.394276 -0.000000 -0.918992 255 255 255
-3.960536 0.000000 -5.771842 -0.565791 -0.000000 -0.824549 255 255 255
-4.998383 0.000000 -4.900630 -0.714055 -0.000000 -0.700090 255 255 255
-5.848929 0.000000 -3.845780 -0.835561 -0.000000 -0.549397 255 255 255
-6.480304 0.000000 -2.646821 -0.925758 -0.000000 -0.378117 255 255 255
-6.868847 0.000000 -1.348679 -0.981264 -0.000000 -0.192668 255 255 255
-7.000000 0.000000 0.000000 -1.000000 0.000000 0.000000 255 255 255
0.000000 0.000000 -7.000000 0.000000 0.000000 -1.000000 255 255 255
-1.401238 -0.292738 -6.852068 -0.200177 -0.041820 -0.978867 255 255 255
-2.701603 -0.564402 -6.432946 -0.385943 -0.080629 -0.918992 255 255 255
-3.876837 -0.809924 -5.771842 -0.553834 -0.115703 -0.824549 255 255 255
-4.892751 -1.022162 -4.900630 -0.698964 -0.146023 -0.700090 255 255 255
-5.725323 -1.196098 -3.845780 -0.817903 -0.170871 -0.549397 255 255 255
-6.343355 -1.325213 -2.646821 -0.906194 -0.189316 -0.378117 255 255 255
-6.723687 -1.404670 -1.348679 -0.960527 -0.200667 -0.192668 255 255 255
0.000000 0.000000 -7.000000 0.000000 0.000000 -1.000000 255 255 255
-1.315529 -0.564402 -6.852068 -0.187933 -0.080629 -0.978867 255 255 255
-2.536353 -1.088173 -6.432946 -0.362336 -0.155453 -0.918992 255 255 255
-3.639702 -1.561543 -5.771842 -0.519957 -0.223078 -0.824549 255 255 255
-4.593475 -1.970740 -4.900630 -0.656211 -0.281534 -0.700090 255 255 255
-5.375121 -2.306090 -3.845780 -0.767874 -0.329441 -0.549397 255 255 255
-5.955349 -2.555026 -2.646821 -0.850764 -0.365004 -0.378117 255 255 255
-6.312418 -2.708219 -1.348679 -0.901774 -0.386888 -0.192668 255 255 255
0.000000 0.000000 -7.000000 0.000000 0.000000 -1.000000 255 255 255
-1.180334 -0.809924 -6.852068 -0.168619 -0.115703 -0.978867 255 255 255
-2.275696 -1.561543 -6.432946 -0.325099 -0.223078 -0.918992 255 255 255
-3.265655 -2.240835 -5.771842 -0.466522 -0.320119 -0.824549 255 255 255
-4.121410 -2.828039 -4.900630 -0.588773 -0.404006 -0.700090 255 255 255
-4.822728 -3.309271 -3.845780 -0.688961 -0.472753 -0.549397 255 255 255
-5.343327 -3.666497 -2.646821 -0.763332 -0.523785 -0.378117 255 255 255
-5.663700 -3.886331 -1.348679 -0.809100 -0.555190 -0.192668 255 255 255
0.000000 0.000000 -7.000000 0.000000 0.000000 -1.000000 255 255 255
-1.002172 -1.022162 -6.852068 -0.143167 -0.146023 -0.978867 255 255 255
-1.932199 -1.970740 -6.432946 -0.276028 -0.281534 -0.918992 255 255 255
-2.772731 -2.828039 -5.771842 -0.396104 -0.404006 -0.824549 255 255 255
-3.499317 -3.569119 -4.900630 -0.499902 -0.509874 -0.700090 255 255 255
-4.094777 -4.176455 -3.845780 -0.584968 -0.596636 -0.549397 255 255 255
-4.536796 -4.627292 -2.646821 -0.648114 -0.661042 -0.378117 255 255 255
-4.808811 -4.904733 -1.348679 -0.686973 -0.700676 -0.192668 255 255 255
0.000000 0.000000 -7.000000 0.000000 0.000000 -1.000000 255 255 255
-0.786457 -1.196098 -6.852068 -0.112351 -0.170871 -0.978867 255 255 255
-1.516297 -2.306090 -6.432946 -0.216614 -0.329441 -0.918992 255 255 255
-2.175907 -3.309271 -5.771842 -0.310844 -0.472753 -0.824549 255 255 255
-2.746097 -4.176455 -4.900630 -0.392300 -0.596636 -0.700090 255 255 255
-3.213385 -4.887139 -3.845780 -0.459055 -0.698163 -0.549397 255 255 255
-3.560261 -5.414691 -2.646821 -0.508609 -0.773527 -0.378117 255 255 255
-3.773725 -5.739343 -1.348679 -0.539104 -0.819906 -0.192668 255 255 255
0.000000 0.000000 -7.000000 0.000000 0.000000 -1.000000 255 255 255
-0.541271 -1.325213 -6.852068 -0.077324 -0.189316 -0.978867 255 255 255
-1.043577 -2.555026 -6.432946 -0.149082 -0.365004 -0.918992 255 255 255
-1.497547 -3.666497 -5.771842 -0.213935 -0.523785 -0.824549 255 255 255
-1.889975 -4.627292 -4.900630 -0.269996 -0.661042 -0.700090 255 255 255
-2.211581 -5.414691 -3.845780 -0.315940 -0.773527 -0.549397 255 255 255
-2.450315 -5.999191 -2.646821 -0.350045 -0.857027 -0.378117 255 255 255
-2.597230 -6.358889 -1.348679 -0.371033 -0.908413 -0.192668 255 255 255
0.000000 0.000000 -7.000000 0.000000 0.000000 -1.000000 255 255 255
-0.275803 -1.404670 -6.852068 -0.039400 -0.200667 -0.978867 255 255 255
-0.531751 -2.708219 -6.432946 -0.075964 -0.386888 -0.918992 255 255 255
-0.763070 -3.886331 -5.771842 -0.109010 -0.555190 -0.824549 255 255 255
-0.963031 -4.904733 -4.900630 -0.137576 -0.700676 -0.700090 255 255 255
-1.126904 -5.739343 -3.845780 -0.160986 -0.819906 -0.549397 255 255 255
-1.248550 -6.358889 -2.646821 -0.178364 -0.908413 -0.378117 255 255 255
-1.323410 -6.740152 -1.348679 -0.189059 -0.962879 -0.192668 255 255 255
0.000000 0.000000 -7.000000 0.000000 0.000000 -1.000000 255 255 255
-0.000000 -1.431490 -6.852068 -0.000000 -0.204499 -0.978867 255 255 255
-0.000000 -2.759929 -6.432946 -0.000000 -0.394276 -0.918992 255 255 255
-0.000000 -3.960536 -5.771842 -0.000000 -0.565791 -0.824549 255 255 255
-0.000000 -4.998383 -4.900630 -0.000000 -0.714055 -0.700090 255 255 255
-0.000000 -5.848929 -3.845780 -0.000000 -0.835561 -0.549397 255 255 255
-0.000000 -6.480304 -2.646821 -0.000000 -0.925758 -0.378117 255 255 255
-0.000000 -6.868847 -1.348679 -0.000000 -0.981264 -0.192668 255 255 255
-0.000000 -7.000000 0.000000 -0.000000 -1.000000 0.000000 255 255 255
0.000000 0.000000 -7.000000 0.000000 0.000000 -1.000000 255 255 255
0.292738 -1.401238 -6.852068 0.041820 -0.200177 -0.978867 255 255 255
0.564402 -2.701603 -6.432946 0.080629 -0.385943 -0.918992 255 255 255
0.809924 -3.876837 -5.771842 0.115703 -0.553834 -0.824549 255 255 255
1.022162 -4.892751 -4.900630 0.146023 -0.698964 -0.700090 255 255 255
1.196098 -5.725323 -3.845780 0.170871 -0.817903 -0.549397 255 255 255
1.325213 -6.343355 -2.646821 0.189316 -0.906194 -0.378117 255 255 255
1.404670 -6.723687 -1.348679 0.200667 -0.960527 -0.192668 255 255 255
0.000000 0.000000 -7.000000 0.000000 0.000000 -1.000000 255 255 255
0.564402 -1.315529 -6.852068 0.080629 -0.187933 -0.978867 255 255 255
1.088173 -2.536353 -6.432946 0.155453 -0.362336 -0.918992 255 255 255
1.561543 -3.639702 -5.771842 0.223078 -0.519957 -0.824549 255 255 255
1.970740 -4.593475 -4.900630 0.281534 -0.656211 -0.700090 255 255 255
2.306090 -5.375121 -3.845780 0.329441 -0.767874 -0.549397 255 255 255
2.555026 -5.955349 -2.646821 0.365004 -0.850764 -0.378117 255 255 255
2.708219 -6.312418 -1.348679 0.386888 -0.901774 -0.192668 255 255 255
0.000000 0.000000 -7.000000 0.000000 0.000000 -1.000000 255 255 255
0.809924 -1.180334 -6.852068 0.115703 -0.168619 -0.978867 255 255 255
1.561543 -2.275696 -6.432946 0.223078 -0.325099 -0.918992 255 255 255
2.240835 -3.265655 -5.771842 0.320119 -0.466522 -0.824549 255 255 255
2.828039 -4.121410 -4.900630 0.404006 -0.588773 -0.700090 255 255 255
3.309271 -4.822728 -3.845780 0.472753 -0.688961 -0.549397 255 255 255
3.666497 -5.343327 -2.646821 0.523785 -0.763332 -0.378117 255 255 255
3.886331 -5.663700 -1.348679 0.555190 -0.809100 -0.192668 255 255 255
0.000000 0.000000 -7.000000 0.000000 0.000000 -1.000000 255 255 255
1.022162 -1.002172 -6.852068 0.146023 -0.143167 -0.978867 255 255 255
1.970740 -1.932199 -6.432946 0.281534 -0.276028 -0.918992 255 255 255
2.828039 -2.772731 -5.771842 0.404006 -0.396104 -0.824549 255 255 255
3.569119 -3.499317 -4.900630 0.509874 -0.499902 -0.700090 255 255 255
4.176455 -4.094777 -3.845780 0.596636 -0.584968 -0.549397 255 255 255
4.627292 -4.536796 -2.646821 0.661042 -0.648114 -0.378117 255 255 255
4.904733 -4.808811 -1.348679 0.700676 -0.686973 -0.192668 255 255 255
0.000000 0.000000 -7.000000 0.000000 0.000000 -1.000000 255 255 255
1.196098 -0.786457 -6.852068 0.170871 -0.112351 -0.978867 255 255 255
2.306090 -1.516297 -6.432946 0.329441 -0.216614 -0.918992 255 255 255
3.309271 -2.175907 -5.771842 0.472753 -0.310844 -0.824549 255 255 255
4.176455 -2.746097 -4.900630 0.596636 -0.392300 -0.700090 255 255 255
4.887139 -3.213385 -3.845780 0.698163 -0.459055 -0.549397 255 255 255
5.414691 -3.560261 -2.646821 0.773527 -0.508609 -0.378117 255 255 255
5.739343 -3.773725 -1.348679 0.819906 -0.539104 -0.192668 255 255 255
0.000000 0.000000 -7.000000 0.000000 0.000000 -1.000000 255 255 255
1.325213 -0.541271 -6.852068 0.189316 -0.077324 -0.978867 255 255 255
2.555026 -1.043577 -6.432946 0.365004 -0.149082 -0.918992 255 255 255
3.666497 -1.497547 -5.771842 0.523785 -0.213935 -0.824549 255 255 255
4.627292 -1.889975 -4.900630 0.661042 -0.269996 -0.700090 255 255 255
5.414691 -2.211581 -3.845780 0.773527 -0.315940 -0.549397 255 255 255
5.999191 -2.450315 -2.646821 0.857027 -0.350045 -0.378117 255 255 255
6.358889 -2.597230 -1.348679 0.908413 -0.371033 -0.192668 255 255 255
0.000000 0.000000 -7.000000 0.000000 0.000000 -1.000000 255 255 255
1.404670 -0.275803 -6.852068 0.200667 -0.039400 -0.978867 255 255 255
2.708219 -0.531751 -6.432946 0.386888 -0.075964 -0.918992 255 255 255
3.886331 -0.763070 -5.771842 0.555190 -0.109010 -0.824549 255 255 255
4.904733 -0.963031 -4.900630 0.700676 -0.137576 -0.700090 255 255 255
5.739343 -1.126904 -3.845780 0.819906 -0.160986 -0.549397 255 255 255
6.358889 -1.248550 -2.646821 0.908413 -0.178364 -0.378117 255 255 255
6.740152 -1.323410 -1.348679 0.962879 -0.189059 -0.192668 255 255 255
0.000000 0.000000 -7.000000 0.000000 0.000000 -1.000000 255 255 255
1.431490 -0.000000 -6.852068 0.204499 -0.000000 -0.978867 255 255 255
2.759929 -0.000000 -6.432946 0.394276 -0.000000 -0.918992 255 255 255
3.960536 -0.000000 -5.771842 0.565791 -0.000000 -0.824549 255 255 255
4.998383 -0.000000 -4.900630 0.714055 -0.000000 -0.700090 255 255 255
5.848929 -0.000000 -3.845780 0.835561 -0.000000 -0.549397 255 255 255
6.480304 -0.000000 -2.646821 0.925758 -0.000000 -0.378117 255 255 255
6.868847 -0.000000 -1.348679 0.981264 -0.000000 -0.192668 255 255 255
7.000000 -0.000000 0.000000 1.000000 -0.000000 0.000000 255 255 255
0.000000 0.000000 -7.000000 0.000000 0.000000 -1.000000 255 255 255
1.401238 0.292738 -6.852068 0.200177 0.041820 -0.978867 255 255 255
2.701603 0.564402 -6.432946 0.385943 0.080629 -0.918992 255 255 255
3.876837 0.809924 -5.771842 0.553834 0.115703 -0.824549 255 255 255
4.892751 1.022162 -4.900630 0.698964 0.146023 -0.700090 255 255 255
5.725323 1.196098 -3.845780 0.817903 0.170871 -0.549397 255 255 255
6.343355 1.325213 -2.646821 0.906194 0.189316 -0.378117 255 255 255
6.723687 1.404670 -1.348679 0.960527 0.200667 -0.192668 255 255 255
0.000000 0.000000 -7.000000 0.000000 0.000000 -1.000000 255 255 255
1.315529 0.564402 -6.852068 0.187933 0.080629 -0.978867 255 255 255
2.536353 1.088173 -6.432946 0.362336 0.155453 -0.918992 255 255 255
3.639702 1.561543 -5.771842 0.519957 0.223078 -0.824549 255 255 255
4.593475 1.970740 -4.900630 0.656211 0.281534 -0.700090 255 255 255
5.375121 2.306090 -3.845780 0.767874 0.329441 -0.549397 255 255 255
5.955349 2.555026 -2.646821 0.850764 0.365004 -0.378117 255 255 255
6.312418 2.708219 -1.348679 0.901774 0.386888 -0.192668 255 255 255
0.000000 0.000000 -7.000000 0.000000 0.000000 -1.000000 255 255 255
1.180334 0.809924 -6.852068 0.168619 0.115703 -0.978867 255 255 255
2.275696 1.561543 -6.432946 0.325099 0.223078 -0.918992 255 255 255
3.265655 2.240835 -5.771842 0.466522 0.320119 -0.824549 255 255 255
4.121410 2.828039 -4.900630 0.588773 0.404006 -0.700090 255 255 255
4.822728 3.309271 -3.845780 0.688961 0.472753 -0.549397 255 255 255
5.343327 3.666497 -2.646821 0.763332 0.523785 -0.378117 255 255 255
5.663700 3.886331 -1.348679 0.809100 0.555190 -0.192668 255 255 255
0.000000 0.000000 -7.000000 0.000000 0.000000 -1.000000 255 255 255
1.002172 1.022162 -6.852068 0.143167 0.146023 -0.978867 255 255 255
1.932199 1.970740 -6.432946 0.276028 0.281534 -0.918992 255 255 255
2.772731 2.828039 -5.771842 0.396104 0.404006 -0.824549 255 255 255
3.499317 3.569119 -4.900630 0.499902 0.509874 -0.700090 255 255 255
4.094777 4.176455 -3.845780 0.584968 0.596636 -0.549397 255 255 255
4.536796 4.627292 -2.646821 0.648114 0.661042 -0.378117 255 255 255
4.808811 4.904733 -1.348679 0.686973 0.700676 -0.192668 255 255 255
0.000000 0.000000 -7.000000 0.000000 0.000000 -1.000000 255 255 255
0.786457 1.196098 -6.852068 0.112351 0.170871 -0.978867 255 255 255
1.516297 2.306090 -6.432946 0.216614 0.329441 -0.918992 255 255 255
2.175907 3.309271 -5.771842 0.310844 0.472753 -0.824549 255 255 255
2.746097 4.176455 -4.900630 0.392300 0.596636 -0.700090 255 255 255
3.213385 4.887139 -3.845780 0.459055 0.698163 -0.549397 255 255 255
3.560261 5.414691 -2.646821 0.508609 0.773527 -0.378117 255 255 255
3.773725 5.739343 -1.348679 0.539104 0.819906 -0.192668 255 255 255
0.000000 0.000000 -7.000000 0.000000 0.000000 -1.000000 255 255 255
0.541271 1.325213 -6.852068 0.077324 0.189316 -0.978867 255 255 255
1.043577 2.555026 -6.432946 0.149082 0.365004 -0.918992 255 255 255
1.497547 3.666497 -5.771842 0.213935 0.523785 -0.824549 255 255 255
1.889975 4.627292 -4.900630 0.269996 0.661042 -0.700090 255 255 255
2.211581 5.414691 -3.845780 0.315940 0.773527 -0.549397 255 255 255
2.450315 5.999191 -2.646821 0.350045 0.857027 -0.378117 255 255 255
2.597230 6.358889 -1.348679 0.371033 0.908413 -0.192668 255 255 255
0.000000 0.000000 -7.000000 0.000000 0.000000 -1.000000 255 255 255
0.275803 1.404670 -6.852068 0.039400 0.200667 -0.978867 255 255 255
0.531751 2.708219 -6.432946 0.075964 0.386888 -0.918992 255 255 255
0.763070 3.886331 -5.771842 0.109010 0.555190 -0.824549 255 255 255
0.963031 4.904733 -4.900630 0.137576 0.700676 -0.700090 255 255 255
1.126904 5.739343 -3.845780 0.160986 0.819906 -0.549397 255 255 255
1.248550 6.358889 -2.646821 0.178364 0.908413 -0.378117 255 255 255
1.323410 6.740152 -1.348679 0.189059 0.962879 -0.192668 255 255 255
0.000000 0.000000 -7.000000 0.000000 0.000000 -1.000000 255 255 255
0.000000 1.431490 -6.852068 0.000000 0.204499 -0.978867 255 255 255
0.000000 2.759929 -6.432946 0.000000 0.394276 -0.918992 255 255 255
0.000000 3.960536 -5.771842 0.000000 0.565791 -0.824549 255 255 255
0.000000 4.998383 -4.900630 0.000000 0.714055 -0.700090 255 255 255
0.000000 5.848929 -3.845780 0.000000 0.835561 -0.549397 255 255 255
0.000000 6.480304 -2.646821 0.000000 0.925758 -0.378117 255 255 255
0.000000 6.868847 -1.348679 0.000000 0.981264 -0.192668 255 255 255
0.000000 7.000000 0.000000 0.000000 1.000000 -0.000000 255 255 255
0.000000 0.000000 -7.000000 0.000000 0.000000 -1.000000 255 255 255
-0.292738 1.401238 -6.852068 -0.041820 0.200177 -0.978867 255 255 255
-0.564402 2.701603 -6.432946 -0.080629 0.385943 -0.918992 255 255 255
-0.809924 3.876837 -5.771842 -0.115703 0.553834 -0.824549 255 255 255
-1.022162 4.892751 -4.900630 -0.146023 0.698964 -0.700090 255 255 255
-1.196098 5.725323 -3.845780 -0.170871 0.817903 -0.549397 255 255 255
-1.325213 6.343355 -2.646821 -0.189316 0.906194 -0.378117 255 255 255
-1.404670 6.723687 -1.348679 -0.200667 0.960527 -0.192668 255 255 255
0.000000 0.000000 -7.000000 0.000000 0.000000 -1.000000 255 255 255
-0.564402 1.315529 -6.852068 -0.080629 0.187933 -0.978867 255 255 255
-1.088173 2.536353 -6.432946 -0.155453 0.362336 -0.918992 255 255 255
-1.561543 3.639702 -5.771842 -0.223078 0.519957 -0.824549 255 255 255
-1.970740 4.593475 -4.900630 -0.281534 0.656211 -0.700090 255 255 255
-2.306090 5.375121 -3.845780 -0.329441 0.767874 -0.549397 255 255 255
-2.555026 5.955349 -2.646821 -0.365004 0.850764 -0.378117 255 255 255
-2.708219 6.312418 -1.348679 -0.386888 0.901774 -0.192668 255 255 255
0.000000 0.000000 -7.000000 0.000000 0.000000 -1.000000 255 255 255
-0.809924 1.180334 -6.852068 -0.115703 0.168619 -0.978867 255 255 255
-1.561543 2.275696 -6.432946 -0.223078 0.325099 -0.918992 255 255 255
-2.240835 3.265655 -5.771842 -0.320119 0.466522 -0.824549 255 255 255
-2.828039 4.121410 -4.900630 -0.404006 0.588773 -0.700090 255 255 255
-3.309271 4.822728 -3.845780 -0.472753 0.688961 -0.549397 255 255 255
-3.666497 5.343327 -2.646821 -0.523785 0.763332 -0.378117 255 255 255
-3.886331 5.663700 -1.348679 -0.555190 0.809100 -0.192668 255 255 255
0.000000 0.000000 -7.000000 0.000000 0.000000 -1.000000 255 255 255
-1.022162 1.002172 -6.852068 -0.146023 0.143167 -0.978867 255 255 255
-1.970740 1.932199 -6.432946 -0.281534 0.276028 -0.918992 255 255 255
-2.828039 2.772731 -5.771842 -0.404006 0.396104 -0.824549 255 255 255
-3.569119 3.499317 -4.900630 -0.509874 0.499902 -0.700090 255 255 255
-4.176455 4.094777 -3.845780 -0.596636 0.584968 -0.549397 255 255 255
-4.627292 4.536796 -2.646821 -0.661042 0.648114 -0.378117 255 255 255
-4.904733 4.808811 -1.348679 -0.700676 0.686973 -0.192668 255 255 255
0.000000 0.000000 -7.000000 0.000000 0.000000 -1.000000 255 255 255
-1.196098 0.786457 -6.852068 -0.170871 0.112351 -0.978867 255 255 255
-2.306090 1.516297 -6.432946 -0.329441 0.216614 -0.918992 255 255 255
-3.309271 2.175907 -5.771842 -0.472753 0.310844 -0.824549 255 255 255
-4.176455 2.746097 -4.900630 -0.596636 0.392300 -0.700090 255 255 255
-4.887139 3.213385 -3.845780 -0.698163 0.459055 -0.549397 255 255 255
-5.414691 3.560261 -2.646821 -0.773527 0.508609 -0.378117 255 255 255
-5.739343 3.773725 -1.348679 -0.819906 0.539104 -0.192668 255 255 255
0.000000 0.000000 -7.000000 0.000000 0.000000 -1.000000 255 255 255
-1.325213 0.541271 -6.852068 -0.189316 0.077324 -0.978867 255 255 255
-2.555026 1.043577 -6.432946 -0.365004 0.149082 -0.918992 255 255 255
-3.666497 1.497547 -5.771842 -0.523785 0.213935 -0.824549 255 255 255
-4.627292 1.889975 -4.900630 -0.661042 0.269996 -0.700090 255 255 255
-5.414691 2.211581 -3.845780 -0.773527 0.315940 -0.549397 255 255 255
-5.999191 2.450315 -2.646821 -0.857027 0.350045 -0.378117 255 255 255
-6.358889 2.597230 -1.348679 -0.908413 0.371033 -0.192668 255 255 255
0.000000 0.000000 -7.000000 0.000000 0.000000 -1.000000 255 255 255
-1.404670 0.275803 -6.852068 -0.200667 0.039400 -0.978867 255 255 255
-2.708219 0.531751 -6.432946 -0.386888 0.075964 -0.918992 255 255 255
-3.886331 0.763070 -5.771842 -0.555190 0.109010 -0.824549 255 255 255
-4.904733 0.963031 -4.900630 -0.700676 0.137576 -0.700090 255 255 255
-5.739343 1.126904 -3.845780 -0.819906 0.160986 -0.549397 255 255 255
-6.358889 1.248550 -2.646821 -0.908413 0.178364 -0.378117 255 255 255
-6.740152 1.323410 -1.348679 -0.962879 0.189059 -0.192668 255 255 255
0.000000 0.000000 -7.000000 0.000000 0.000000 -1.000000 255 255 255
-1.431490 0.000000 -6.852068 -0.204499 0.000000 -0.978867 255 255 255
-2.759929 0.000000 -6.432946 -0.394276 0.000000 -0.918992 255 255 255
-3.960536 0.000000 -5.771842 -0.565791 0.000000 -0.824549 255 255 255
-4.998383 0.000000 -4.900630 -0.714055 0.000000 -0.700090 255 255 255
-5.848929 0.000000 -3.845780 -0.835561 0.000000 -0.549397 255 255 255
-6.480304 0.000000 -2.646821 -0.925758 0.000000 -0.378117 255 255 255
-6.868847 0.000000 -1.348679 -0.981264 0.000000 -0.192668 255 255 255
-7.000000 0.000000 0.000000 -1.000000 0.000000 0.000000 255 255 255
-6.971684 0.628981 0.000000 -0.995955 0.089854 0.000000 255 255 255
-6.883138 1.273741 0.000000 -0.983305 0.181963 0.000000 255 255 255
-6.729793 1.926108 0.000000 -0.961399 0.275158 0.000000 255 255 255
-6.508518 2.576663 0.000000 -0.929788 0.368095 0.000000 255 255 255
-6.217988 3.215062 0.000000 -0.888284 0.459295 0.000000 255 255 255
-5.858969 3.830468 0.000000 -0.836995 0.547210 0.000000 255 255 255
-5.434472 4.412087 0.000000 -0.776353 0.630298 0.000000 255 255 255
-4.949748 4.949748 0.000000 -0.707107 0.707107 0.000000 255 255 255
-4.412087 5.434472 0.000000 -0.630298 0.776353 0.000000 255 255 255
-3.830468 5.858969 0.000000 -0.547210 0.836995 0.000000 255 255 255
-3.215062 6.217988 0.000000 -0.459295 0.888284 0.000000 255 255 255
-2.576663 6.508518 0.000000 -0.368095 0.929788 0.000000 255 255 255
-1.926108 6.729793 0.000000 -0.275158 0.961399 0.000000 255 255 255
-1.273741 6.883138 0.000000 -0.181963 0.983305 0.000000 255 255 255
-0.628981 6.971684 0.000000 -0.089854 0.995955 0.000000 255 255 255
0.628981 6.971684 0.000000 0.089854 0.995955 -0.000000 255 255 255
1.273741 6.883138 0.000000 0.181963 0.983305 -0.000000 255 255 255
1.926108 6.729793 0.000000 0.275158 0.961399 -0.000000 255 255 255
2.576663 6.508518 0.000000 0.368095 0.929788 -0.000000 255 255 255
3.215062 6.217988 0.000000 0.459295 0.888284 -0.000000 255 255 255
3.830468 5.858969 0.000000 0.547210 0.836995 -0.000000 255 255 255
4.412087 5.434472 0.000000 0.630298 0.776353 -0.000000 255 255 255
4.949748 4.949748 0.000000 0.707107 0.707107 -0.000000 255 255 255
5.434472 4.412087 0.000000 0.776353 0.630298 -0.000000 255 255 255
5.858969 3.830468 0.000000 0.836995 0.547210 -0.000000 255 255 255
6.217988 3.215062 0.000000 0.888284 0.459295 -0.000000 255 255 255
6.508518 2.576663 0.000000 0.929788 0.368095 -0.000000 255 255 255
6.729793 1.926108 0.000000 0.961399 0.275158 -0.000000 255 255 255
6.883138 1.273741 0.000000 0.983305 0.181963 -0.000000 255 255 255
6.971684 0.628981 0.000000 0.995955 0.089854 -0.000000 255 255 255
6.971684 -0.628981 0.000000 0.995955 -0.089854 0.000000 255 255 255
6.883138 -1.273741 0.000000 0.983305 -0.181963 0.000000 255 255 255
6.729793 -1.926108 0.000000 0.961399 -0.275158 0.000000 255 255 255
6.508518 -2.576663 0.000000 0.929788 -0.368095 0.000000 255 255 255
6.217988 -3.215062 0.000000 0.888284 -0.459295 0.000000 255 255 255
5.858969 -3.830468 0.000000 0.836995 -0.547210 0.000000 255 255 255
5.434472 -4.412087 0.000000 0.776353 -0.630298 0.000000 255 255 255
4.949748 -4.949748 0.000000 0.707107 -0.707107 0.000000 255 255 255
4.412087 -5.434472 0.000000 0.630298 -0.776353 0.000000 255 255 255
3.830468 -5.858969 0.000000 0.547210 -0.836995 0.000000 255 255 255
3.215062 -6.217988 0.000000 0.459295 -0.888284 0.000000 255 255 255
2.576663 -6.508518 0.000000 0.368095 -0.929788 0.000000 255 255 255
1.926108 -6.729793 0.000000 0.275158 -0.961399 0.000000 255 255 255
1.273741 -6.883138 0.000000 0.181963 -0.983305 0.000000 255 255 255
0.628981 -6.971684 0.000000 0.089854 -0.995955 0.000000 255 255 255
-0.628981 -6.971684 0.000000 -0.089854 -0.995955 0.000000 255 255 255
-1.273741 -6.883138 0.000000 -0.181963 -0.983305 0.000000 255 255 255
-1.926108 -6.729793 0.000000 -0.275158 -0.961399 0.000000 255 255 255
-2.576663 -6.508518 0.000000 -0.368095 -0.929788 0.000000 255 255 255
-3.215062 -6.217988 0.000000 -0.459295 -0.888284 0.000000 255 255 255
-3.830468 -5.858969 0.000000 -0.547210 -0.836995 0.000000 255 255 255
-4.412087 -5.434472 0.000000 -0.630298 -0.776353 0.000000 255 255 255
-4.949748 -4.949748 0.000000 -0.707107 -0.707107 0.000000 255 255 255
-5.434472 -4.412087 0.000000 -0.776353 -0.630298 0.000000 255 255 255
-5.858969 -3.830468 0.000000 -0.836995 -0.547210 0.000000 255 255 255
-6.217988 -3.215062 0.000000 -0.888284 -0.459295 0.000000 255 255 255
-6.508518 -2.576663 0.000000 -0.929788 -0.368095 0.000000 255 255 255
-6.729793 -1.926108 0.000000 -0.961399 -0.275158 0.000000 255 255 255
-6.883138 -1.273741 0.000000 -0.983305 -0.181963 0.000000 255 255 255
-6.971684 -0.628981 0.000000 -0.995955 -0.089854 0.000000 255 255 255
-5.000000 -3.000000 0.000000 0.000000 0.000000 1.000000 255 255 255
-5.000000 -1.000000 0.000000 0.000000 0.000000 1.000000 255 255 255
-5.000000 1.000000 0.000000 0.000000 0.000000 1.000000 255 255 255
-5.000000 3.000000 0.000000 0.000000 0.000000 1.000000 255 255 255
-3.000000 -5.000000 0.000000 0.000000 0.000000 1.000000 255 255 255
-3.000000 -3.000000 0.000000 0.000000 0.000000 1.000000 255 255 255
-3.000000 5.000000 0.000000 0.000000 0.000000 1.000000 255 255 255
-1.000000 -5.000000 0.000000 0.000000 0.000000 1.000000 255 255 255
-1.000000 5.000000 0.000000 0.000000 0.000000 1.000000 255 255 255
1.000000 -5.000000 0.000000 0.000000 0.000000 1.000000 255 255 255
1.000000 5.000000 0.000000 0.000000 0.000000 1.000000 255 255 255
3.000000 -5.000000 0.000000 0.000000 0.000000 1.000000 255 255 255
3.000000 5.000000 0.000000 0.000000 0.000000 1.000000 255 255 255
5.000000 -3.000000 0.000000 0.000000 0.000000 1.000000 255 255 255
5.000000 -1.000000 0.000000 0.000000 0.000000 1.000000 255 255 255
5.000000 1.000000 0.000000 0.000000 0.000000 1.000000 255 255 255
5.000000 3.000000 0.000000 0.000000 0.000000 1.000000 255 255 255
-7.000000 0.000000 0.000000 0.000000 0.000000 1.000000 255 255 255
-6.971684 -0.628981 0.000000 0.000000 0.000000 1.000000 255 255 255
-6.883138 -1.273741 0.000000 0.000000 0.000000 1.000000 255 255 255
-6.729793 -1.926108 0.000000 0.000000 0.000000 1.000000 255 255 255
-6.508518 -2.576663 0.000000 0.000000 0.000000 1.000000 255 255 255
-6.217988 -3.215062 0.000000 0.000000 0.000000 1.000000 255 255 255
-5.858969 -3.830468 0.000000 0.000000 0.000000 1.000000 255 255 255
-5.434472 -4.412087 0.000000 0.000000 0.000000 1.000000 255 255 255
-4.949748 -4.949748 0.000000 0.000000 0.000000 1.000000 255 255 255
-4.412087 -5.434472 0.000000 0.000000 0.000000 1.000000 255 255 255
-3.830468 -5.858969 0.000000 0.000000 0.000000 1.000000 255 255 255
-3.215062 -6.217988 0.000000 0.000000 0.000000 1.000000 255 255 255
-2.576663 -6.508518 0.000000 0.000000 0.000000 1.000000 255 255 255
-1.926108 -6.729793 0.000000 0.000000 0.000000 1.000000 255 255 255
-1.273741 -6.883138 0.000000 0.000000 0.000000 1.000000 255 255 255
-0.628981 -6.971684 0.000000 0.000000 0.000000 1.000000 255 255 255
-0.000000 -7.000000 0.000000 0.000000 0.000000 1.000000 255 255 255
0.628981 -6.971684 0.000000 0.000000 0.000000 1.000000 255 255 255
1.273741 -6.883138 0.000000 0.000000 0.000000 1.000000 255 255 255
1.926108 -6.729793 0.000000 0.000000 0.000000 1.000000 255 255 255
2.576663 -6.508518 0.000000 0.000000 0.000000 1.000000 255 255 255
3.215062 -6.217988 0.000000 0.000000 0.000000 1.000000 255 255 255
3.830468 -5.858969 0.000000 0.000000 0.000000 1.000000 255 255 255
4.412087 -5.434472 0.000000 0.000000 0.000000 1.000000 255 255 255
4.949748 -4.949748 0.000000 0.000000 0.000000 1.000000 255 255 255
5.434472 -4.412087 0.000000 0.000000 0.000000 1.000000 255 255 255
5.858969 -3.830468 0.000000 0.000000 0.000000 1.000000 255 255 255
6.217988 -3.215062 0.000000 0.000000 0.000000 1.000000 255 255 255
6.508518 -2.576663 0.000000 0.000000 0.000000 1.000000 255 255 255
6.729793 -1.926108 0.000000 0.000000 0.000000 1.000000 255 255 255
6.883138 -1.273741 0.000000 0.000000 0.000000 1.000000 255 255 255
6.971684 -0.628981 0.000000 0.000000 0.000000 1.000000 255 255 255
7.000000 -0.000000 0.000000 0.000000 0.000000 1.000000 255 255 255
6.971684 0.628981 0.000000 0.000000 0.000000 1.000000 255 255 255
6.883138 1.273741 0.000000 0.000000 0.000000 1.000000 255 255 255
6.729793 1.926108 0.000000 0.000000 0.000000 1.000000 255 255 255
6.508518 2.576663 0.000000 0.000000 0.000000 1.000000 255 255 255
6.217988 3.215062 0.000000 0.000000 0.000000 1.000000 255 255 255
5.858969 3.830468 0.000000 0.000000 0.000000 1.000000 255 255 255
5.434472 4.412087 0.000000 0.000000 0.000000 1.000000 255 255 255
4.949748 4.949748 0.000000 0.000000 0.000000 1.000000 255 255 255
4.412087 5.434472 0.000000 0.000000 0.000000 1.000000 255 255 255
3.830468 5.858969 0.000000 0.000000 0.000000 1.000000 255 255 255
3.215062 6.217988 0.000000 0.000000 0.000000 1.000000 255 255 255
2.576663 6.508518 0.000000 0.000000 0.000000 1.000000 255 255 255
1.926108 6.729793 0.000000 0.000000 0.000000 1.000000 255 255 255
1.273741 6.883138 0.000000 0.000000 0.000000 1.000000 255 255 255
0.628981 6.971684 0.000000 0.000000 0.000000 1.000000 255 255 255
0.000000 7.000000 0.000000 0.000000 0.000000 1.000000 255 255 255
-0.628981 6.971684 0.000000 0.000000 0.000000 1.000000 255 255 255
-1.273741 6.883138 0.000000 0.000000 0.000000 1.000000 255 255 255
-1.926108 6.729793 0.000000 0.000000 0.000000 1.000000 255 255 255
-2.576663 6.508518 0.000000 0.000000 0.000000 1.000000 255 255 255
-3.215062 6.217988 0.000000 0.000000 0.000000 1.000000 255 255 255
-3.830468 5.858969 0.000000 0.000000 0.000000 1.000000 255 255 255
-4.412087 5.434472 0.000000 0.000000 0.000000 1.000000 255 255 255
-4.949748 4.949748 0.000000 0.000000 0.000000 1.000000 255 255 255
-5.434472 4.412087 0.000000 0.000000 0.000000 1.000000 255 255 255
-5.858969 3.830468 0.000000 0.000000 0.000000 1.000000 255 255 255
-6.217988 3.215062 0.000000 0.000000 0.000000 1.000000 255 255 255
-6.508518 2.576663 0.000000 0.000000 0.000000 1.000000 255 255 255
-6.729793 1.926108 0.000000 0.000000 0.000000 1.000000 255 255 255
-6.883138 1.273741 0.000000 0.000000 0.000000 1.000000 255 255 255
-6.971684 0.628981 0.000000 0.000000 0.000000 1.000000 255 255 255
-5.000000 0.000000 0.000000 0.000000 0.000000 1.000000 255 255 255
-6.000000 1.000000 0.000000 0.000000 0.000000 1.000000 255 255 255
-6.000000 -1.000000 0.000000 0.000000 0.000000 1.000000 255 255 255
-6.000000 0.000000 0.000000 0.000000 0.000000 1.000000 255 255 255
-5.000000 -2.000000 0.000000 0.000000 0.000000 1.000000 255 255 255
-6.000000 -2.000000 0.000000 0.000000 0.000000 1.000000 255 255 255
-1.000000 -6.000000 0.000000 -0.000000 0.000000 1.000000 255 255 255
-2.000000 -5.000000 0.000000 0.000000 0.000000 1.000000 255 255 255
-2.000000 -6.000000 0.000000 -0.000000 0.000000 1.000000 255 255 255
1.000000 -6.000000 0.000000 -0.000000 0.000000 1.000000 255 255 255
0.000000 -5.000000 0.000000 0.000000 0.000000 1.000000 255 255 255
0.000000 -6.000000 0.000000 -0.000000 0.000000 1.000000 255 255 255
2.000000 -5.000000 0.000000 0.000000 0.000000 1.000000 255 255 255
2.000000 -6.000000 0.000000 -0.000000 0.000000 1.000000 255 255 255
6.000000 -1.000000 0.000000 0.000000 0.000000 1.000000 255 255 255
5.000000 -2.000000 0.000000 0.000000 0.000000 1.000000 255 255 255
6.000000 -2.000000 0.000000 0.000000 0.000000 1.000000 255 255 255
6.000000 1.000000 0.000000 0.000000 0.000000 1.000000 255 255 255
5.000000 0.000000 0.000000 0.000000 0.000000 1.000000 255 255 255
6.000000 0.000000 0.000000 0.000000 0.000000 1.000000 255 255 255
5.000000 2.000000 0.000000 0.000000 0.000000 1.000000 255 255 255
6.000000 2.000000 0.000000 0.000000 0.000000 1.000000 255 255 255
1.000000 6.000000 0.000000 0.000000 0.000000 1.000000 255 255 255
2.000000 5.000000 0.000000 0.000000 0.000000 1.000000 255 255 255
2.000000 6.000000 0.000000 0.000000 0.000000 1.000000 255 255 255
-1.000000 6.000000 0.000000 0.000000 0.000000 1.000000 255 255 255
0.000000 5.000000 0.000000 0.000000 0.000000 1.000000 255 255 255
0.000000 6.000000 0.000000 0.000000 0.000000 1.000000 255 255 255
-2.000000 5.000000 0.000000 0.000000 0.000000 1.000000 255 255 255
-2.000000 6.000000 0.000000 0.000000 0.000000 1.000000 255 255 255
-5.000000 2.000000 0.000000 0.000000 0.000000 1.000000 255 255 255
-6.000000 2.000000 0.000000 0.000000 0.000000 1.000000 255 255 255
3.000000 -3.000000 0.000000 0.000000 0.000000 1.000000 255 255 255
1.500000 -3.000000 0.000000 0.000000 0.000000 1.000000 255 255 255
0.000000 -3.000000 0.000000 0.000000 0.000000 1.000000 255 255 255
-1.500000 -3.000000 0.000000 0.000000 0.000000 1.000000 255 255 255
3.000000 3.000000 0.000000 0.000000 0.000000 1.000000 255 255 255
3.000000 1.500000 0.000000 0.000000 0.000000 1.000000 255 255 255
3.000000 0.000000 0.000000 0.000000 0.000000 1.000000 255 255 255
3.000000 -1.500000 0.000000 0.000000 0.000000 1.000000 255 255 255
-3.000000 3.000000 0.000000 0.000000 0.000000 1.000000 255 255 255
-1.500000 3.000000 0.000000 0.000000 0.000000 1.000000 255 255 255
0.000000 3.000000 0.000000 0.000000 0.000000 1.000000 255 255 255
1.500000 3.000000 0.000000 0.000000 0.000000 1.000000 255 255 255
-3.000000 -1.500000 0.000000 0.000000 0.000000 1.000000 255 255 255
-3.000000 0.000000 0.000000 0.000000 0.000000 1.000000 255 255 255
-3.000000 1.500000 0.000000 0.000000 0.000000 1.000000 255 255 255
-3.000000 -3.000000 0.000000 0.000000 -1.000000 0.000000 255 255 255
-3.000000 -3.000000 4.000000 0.000000 -1.000000 0.000000 255 255 255
3.000000 -3.000000 0.000000 0.000000 -1.000000 0.000000 255 255 255
3.000000 -3.000000 4.000000 0.000000 -1.000000 0.000000 255 255 255
0.000000 -3.000000 4.000000 0.000000 -1.000000 0.000000 255 255 255
-1.500000 -3.000000 0.000000 0.000000 -1.000000 0.000000 255 255 255
0.000000 -3.000000 0.000000 0.000000 -1.000000 0.000000 255 255 255
1.500000 -3.000000 0.000000 0.000000 -1.000000 0.000000 255 255 255
3.000000 -3.000000 0.000000 1.000000 0.000000 0.000000 255 255 255
3.000000 -3.000000 4.000000 1.000000 0.000000 0.000000 255 255 255
3.000000 3.000000 0.000000 1.000000 0.000000 0.000000 255 255 255
3.000000 3.000000 4.000000 1.000000 0.000000 0.000000 255 255 255
3.000000 0.000000 4.000000 1.000000 0.000000 0.000000 255 255 255
3.000000 -1.500000 0.000000 1.000000 0.000000 0.000000 255 255 255
3.000000 0.000000 0.000000 1.000000 0.000000 0.000000 255 255 255
3.000000 1.500000 0.000000 1.000000 0.000000 0.000000 255 255 255
3.000000 3.000000 0.000000 0.000000 1.000000 -0.000000 255 255 255
3.000000 3.000000 4.000000 0.000000 1.000000 -0.000000 255 255 255
-3.000000 3.000000 0.000000 0.000000 1.000000 -0.000000 255 255 255
-3.000000 3.000000 4.000000 0.000000 1.000000 -0.000000 255 255 255
0.000000 3.000000 4.000000 0.000000 1.000000 -0.000000 255 255 255
1.500000 3.000000 0.000000 0.000000 1.000000 -0.000000 255 255 255
0.000000 3.000000 0.000000 0.000000 1.000000 -0.000000 255 255 255
-1.500000 3.000000 0.000000 0.000000 1.000000 -0.000000 255 255 255
-3.000000 3.000000 0.000000 -1.000000 0.000000 0.000000 255 255 255
-3.000000 3.000000 4.000000 -1.000000 0.000000 0.000000 255 255 255
-3.000000 -3.000000 0.000000 -1.000000 0.000000 0.000000 255 255 255
-3.000000 -3.000000 4.000000 -1.000000 0.000000 0.000000 255 255 255
-3.000000 0.000000 4.000000 -1.000000 0.000000 0.000000 255 255 255
-3.000000 1.500000 0.000000 -1.000000 0.000000 0.000000 255 255 255
-3.000000 0.000000 0.000000 -1.000000 0.000000 0.000000 255 255 255
-3.000000 -1.500000 0.000000 -1.000000 0.000000 0.000000 255 255 255
-3.000000 -3.000000 4.000000 0.000000 0.000000 1.000000 255 255 255
-3.000000 3.000000 4.000000 0.000000 0.000000 1.000000 255 255 255
3.000000 -3.000000 4.000000 0.000000 0.000000 1.000000 255 255 255
3.000000 3.000000 4.000000 0.000000 0.000000 1.000000 255 255 255
0.000000 -3.000000 4.000000 0.000000 0.000000 1.000000 255 255 255
3.000000 0.000000 4.000000 0.000000 0.000000 1.000000 255 255 255
0.000000 3.000000 4.000000 0.000000 0.000000 1.000000 255 255 255
-3.000000 0.000000 4.000000 0.000000 0.000000 1.000000 255 255 255
3 10 1 0
4 11 2 1 10
4 12 3 2 11
4 13 4 3 12
4 14 5 4 13
4 15 6 5 14
4 16 7 6 15
3 18 10 9
4 19 11 10 18
4 20 12 11 19
4 21 13 12 20
4 22 14 13 21
4 23 15 14 22
4 24 16 15 23
3 26 18 17
4 27 19 18 26
4 28 20 19 27
4 29 21 20 28
4 30 22 21 29
4 31 23 22 30
4 32 24 23 31
3 34 26 25
4 35 27 26 34
4 36 28 27 35
4 37 29 28 36
4 38 30 29 37
4 39 31 30 38
4 40 32 31 39
3 42 34 33
4 43 35 34 42
4 44 36 35 43
4 45 37 36 44
4 46 38 37 45
4 47 39 38 46
4 48 40 39 47
3 50 42 41
4 51 43 42 50
4 52 44 43 51
4 53 45 44 52
4 54 46 45 53
4 55 47 46 54
4 56 48 47 55
3 58 50 49
4 59 51 50 58
4 60 52 51 59
4 61 53 52 60
4 62 54 53 61
4 63 55 54 62
4 64 56 55 63
3 66 58 57
4 67 59 58 66
4 68 60 59 67
4 69 61 60 68
4 70 62 61 69
4 71 63 62 70
4 72 64 63 71
3 75 66 65
4 76 67 66 75
4 77 68 67 76
4 78 69 68 77
4 79 70 69 78
4 80 71 70 79
4 81 72 71 80
3 83 75 74
4 84 76 75 83
4 85 77 76 84
4 86 78 77 85
4 87 79 78 86
4 88 80 79 87
4 89 81 80 88
3 91 83 82
4 92 84 83 91
4 93 85 84 92
4 94 86 85 93
4 95 87 86 94
4 96 88 87 95
4 97 89 88 96
3 99 91 90
4 100 92 91 99
4 101 93 92 100
4 102 94 93 101
4 103 95 94 102
4 104 96 95 103
4 105 97 96 104
3 107 99 98
4 108 100 99 107
4 109 101 100 108
4 110 102 101 109
4 111 103 102 110
4 112 104 103 111
4 113 105 104 112
3 115 107 106
4 116 108 107 115
4 117 109 108 116
4 118 110 109 117
4 119 111 110 118
4 120 112 111 119
4 121 113 112 120
3 123 115 114
4 124 116 115 123
4 125 117 116 124
4 126 118 117 125
4 127 119 118 126
4 128 120 119 127
4 129 121 120 128
3 131 123 122
4 132 124 123 131
4 133 125 124 132
4 134 126 125 133
4 135 127 126 134
4 136 128 127 135
4 137 129 128 136
3 140 131 130
4 141 132 131 140
4 142 133 132 141
4 143 134 133 142
4 144 135 134 143
4 145 136 135 144
4 146 137 136 145
3 148 140 139
4 149 141 140 148
4 150 142 141 149
4 151 143 142 150
4 152 144 143 151
4 153 145 144 152
4 154 146 145 153
3 156 148 147
4 157 149 148 156
4 158 150 149 157
4 159 151 150 158
4 160 152 151 159
4 161 153 152 160
4 162 154 153 161
3 164 156 155
4 165 157 156 164
4 166 158 157 165
4 167 159 158 166
4 168 160 159 167
4 169 161 160 168
4 170 162 161 169
3 172 164 163
4 173 165 164 172
4 174 166 165 173
4 175 167 166 174
4 176 168 167 175
4 177 169 168 176
4 178 170 169 177
3 180 172 171
4 181 173 172 180
4 182 174 173 181
4 183 175 174 182
4 184 176 175 183
4 185 177 176 184
4 186 178 177 185
3 188 180 179
4 189 181 180 188
4 190 182 181 189
4 191 183 182 190
4 192 184 183 191
4 193 185 184 192
4 194 186 185 193
3 196 188 187
4 197 189 188 196
4 198 190 189 197
4 199 191 190 198
4 200 192 191 199
4 201 193 192 200
4 202 194 193 201
3 205 196 195
4 206 197 196 205
4 207 198 197 206
4 208 199 198 207
4 209 200 199 208
4 210 201 200 209
4 211 202 201 210
3 213 205 204
4 214 206 205 213
4 215 207 206 214
4 216 208 207 215
4 217 209 208 216
4 218 210 209 217
4 219 211 210 218
3 221 213 212
4 222 214 213 221
4 223 215 214 222
4 224 216 215 223
4 225 217 216 224
4 226 218 217 225
4 227 219 218 226
3 229 221 220
4 230 222 221 229
4 231 223 222 230
4 232 224 223 231
4 233 225 224 232
4 234 226 225 233
4 235 227 226 234
3 237 229 228
4 238 230 229 237
4 239 231 230 238
4 240 232 231 239
4 241 233 232 240
4 242 234 233 241
4 243 235 234 242
3 245 237 236
4 246 238 237 245
4 247 239 238 246
4 248 240 239 247
4 249 241 240 248
4 250 242 241 249
4 251 243 242 250
3 253 245 244
4 254 246 245 253
4 255 247 246 254
4 256 248 247 255
4 257 249 248 256
4 258 250 249 257
4 259 251 250 258
3 261 253 252
4 262 254 253 261
4 263 255 254 262
4 264 256 255 263
4 265 257 256 264
4 266 258 257 265
4 267 259 258 266
3 328 8 7
4 7 16 327 328
4 16 24 325 326
4 24 32 323 324
3 32 322 323
3 16 326 327
3 24 324 325
4 32 40 321 322
4 40 48 319 320
4 48 56 318 319
4 64 72 314 315
4 72 81 312 313
4 56 64 316 317
4 89 97 308 309
4 97 105 306 307
4 113 121 303 304
4 121 129 301 302
4 105 113 304 305
4 81 89 310 311
4 129 137 299 300
3 40 320 321
3 56 317 318
3 64 315 316
3 72 313 73
3 73 314 72
3 89 309 310
3 97 307 308
3 300 301 129
3 302 303 121
3 305 306 105
3 311 312 81
3 299 137 138
3 138 137 298
4 137 146 297 298
4 146 154 295 296
4 154 162 293 294
4 162 170 291 292
3 146 296 297
3 162 292 293
3 294 295 154
4 170 178 289 290
4 178 186 288 289
4 194 202 284 285
4 202 211 282 283
4 186 194 286 287
4 219 227 278 279
4 227 235 276 277
4 243 251 273 274
4 251 259 271 272
4 235 243 274 275
4 211 219 280 281
4 259 267 269 270
3 170 290 291
3 186 287 288
3 202 203 284
3 211 281 282
3 283 203 202
3 285 286 194
3 219 279 280
3 235 275 276
3 277 278 227
3 251 272 273
3 259 270 271
3 267 268 269
4 330 412 415 414
3 329 414 415
4 331 411 413 410
4 410 413 412 330
3 441 440 332
4 440 441 411 331
4 336 417 418 416
3 418 417 333
3 335 438 439
4 435 439 438 337
4 338 420 421 419
4 420 336 416 421
4 437 435 337 436
4 432 437 436 339
3 340 422 423
4 422 338 419 423
4 434 432 339 433
3 434 433 341
4 424 343 425 426
3 426 425 342
4 427 344 428 429
4 429 428 343 424
3 345 430 431
4 431 430 344 427
3 329 352 353
3 415 351 329
3 352 329 351
3 329 353 354
3 333 355 356
3 333 354 355
3 354 334 329
4 414 329 334 454
3 349 412 348
3 348 412 347
3 415 349 350
3 351 415 350
3 413 347 412
3 454 330 414
3 349 415 412
3 356 357 333
3 416 418 359
3 357 418 333
3 359 418 358
3 416 359 360
3 421 361 362
3 361 421 416
3 421 362 363
3 360 361 416
4 333 417 445 334
3 354 333 334
4 336 420 444 445
4 420 338 443 444
3 417 336 445
3 358 418 357
4 454 455 410 330
3 411 408 409
3 408 411 407
3 346 413 409
3 441 407 411
3 456 440 331
3 409 413 411
3 413 346 347
3 405 406 441
3 407 441 406
3 405 332 404
3 332 405 441
3 404 332 403
3 450 402 332
3 332 402 403
4 332 440 456 450
4 331 410 455 456
3 401 402 335
3 335 402 450
4 438 335 450 451
3 451 337 438
4 451 452 436 337
3 400 401 335
3 400 335 399
3 399 335 439
3 439 398 399
3 398 439 397
3 396 397 435
3 439 435 397
3 435 395 396
3 437 395 435
3 419 363 364
3 423 419 365
3 364 365 419
3 423 366 367
3 423 367 340
3 365 366 423
3 367 368 340
3 443 338 422
4 422 340 442 443
4 449 442 342 425
3 442 340 370
4 448 449 343 428
3 340 369 370
3 368 369 340
3 342 370 371
3 372 342 371
3 449 425 343
3 342 373 426
3 375 426 374
3 373 374 426
3 372 373 342
3 429 424 377
3 376 377 424
3 377 378 429
3 375 376 424
3 424 426 375
3 379 429 378
3 442 370 342
4 428 344 447 448
4 452 453 339 436
3 339 453 433
4 453 446 341 433
4 446 447 430 345
3 341 446 386
3 393 437 432
3 437 393 394
3 393 432 392
3 395 437 394
3 391 434 390
3 434 389 390
3 391 392 432
3 434 391 432
3 389 434 341
3 431 427 381
3 380 381 427
3 381 382 431
3 379 380 427
3 427 429 379
3 382 383 431
3 341 386 387
3 341 387 388
3 341 388 389
3 384 345 383
3 431 383 345
3 345 384 385
3 386 345 385
3 386 446 345
3 344 430 447
3 419 421 363
3 458 457 462
3 463 461 462
3 458 462 461
3 460 464 459
3 464 460 461
3 463 464 461
3 466 465 470
3 471 469 470
3 466 470 469
3 468 472 467
3 472 468 469
3 471 472 469
3 474 473 478
3 479 477 478
3 474 478 477
3 476 480 475
3 480 476 477
3 479 480 477
3 482 481 486
3 487 485 486
3 482 486 485
3 484 488 483
3 488 484 485
3 487 488 485
3 496 489 493
3 496 495 490
3 494 496 493
3 496 494 495
3 494 492 495
3 491 494 493
0 0 0 0 255 255 255 0 0 0 0 0 255 255 255 0 0.000000 0.000000
